<svg width="30" height="30" viewBox="0 0 30 30" fill="none" xmlns="http://www.w3.org/2000/svg">
<path d="M0.457825 29.8791H8.22566V9.45253H0.457825V29.8791ZM2.21564 11.2103H6.46784V28.1212H2.21564V11.2103Z" fill="white"/>
<path d="M4.34174 0.121037C1.94766 0.121037 0 2.06875 0 4.46278C0 6.8568 1.94766 8.80457 4.34174 8.80457C6.73582 8.80457 8.68354 6.85686 8.68354 4.46278C8.68354 2.06869 6.73576 0.121037 4.34174 0.121037ZM1.75781 4.46278C1.75781 3.03801 2.91691 1.87885 4.34174 1.87885C5.76656 1.87885 6.92572 3.03795 6.92572 4.46278C6.92572 5.8876 5.76656 7.04676 4.34174 7.04676C2.91691 7.04676 1.75781 5.88754 1.75781 4.46278Z" fill="white"/>
<path d="M29.9813 15.8666C29.7048 11.8907 26.3884 8.82691 22.2768 8.82691C20.4377 8.82691 18.7017 9.46629 17.3338 10.6008V9.45234H9.89062V29.8789H17.6585V18.7072C17.6585 17.4481 18.6828 16.4238 19.9419 16.4238C21.2009 16.4238 22.2253 17.4481 22.2253 18.7077L22.2328 29.8789H30.0001V15.8855L29.9813 15.8666ZM15.9007 28.1212H11.6484V11.2102H15.5759V13.7208L16.9825 13.7289L17.2438 13.3232C18.3483 11.6084 20.2298 10.5848 22.2768 10.5848C25.5485 10.5848 28.168 13.081 28.2405 16.2675L28.2422 28.1212H23.9894L23.9831 18.7072C23.9831 16.4788 22.1702 14.666 19.9419 14.666C17.7136 14.666 15.9007 16.4788 15.9007 18.7072V28.1212Z" fill="white"/>
</svg>
