<svg width="134" height="16" viewBox="0 0 134 16" fill="none" xmlns="http://www.w3.org/2000/svg">
<path d="M5.14 5.06C7.47333 5.06 8.64 6.31333 8.64 8.82V14.48C8.64 14.6667 8.58667 14.82 8.48 14.94C8.37333 15.0467 8.22667 15.1 8.04 15.1C7.85333 15.1 7.7 15.0467 7.58 14.94C7.47333 14.82 7.42 14.6667 7.42 14.48V8.9C7.42 7.94 7.22667 7.24 6.84 6.8C6.45333 6.36 5.84 6.14 5 6.14C4.04 6.14 3.26667 6.43333 2.68 7.02C2.10667 7.60667 1.82 8.39333 1.82 9.38V14.48C1.82 14.6667 1.76667 14.82 1.66 14.94C1.55333 15.0467 1.40667 15.1 1.22 15.1C1.03333 15.1 0.88 15.0467 0.76 14.94C0.653333 14.82 0.6 14.6667 0.6 14.48V5.72C0.6 5.53333 0.653333 5.38667 0.76 5.28C0.88 5.16 1.03333 5.1 1.22 5.1C1.39333 5.1 1.53333 5.15333 1.64 5.26C1.74667 5.36667 1.8 5.51333 1.8 5.7V6.96C2.10667 6.34667 2.54667 5.88 3.12 5.56C3.70667 5.22667 4.38 5.06 5.14 5.06ZM12.4309 15.1C12.2443 15.1 12.0909 15.0467 11.9709 14.94C11.8643 14.8333 11.8109 14.68 11.8109 14.48V5.72C11.8109 5.52 11.8643 5.36667 11.9709 5.26C12.0909 5.15333 12.2443 5.1 12.4309 5.1C12.6176 5.1 12.7643 5.15333 12.8709 5.26C12.9776 5.36667 13.0309 5.52 13.0309 5.72V14.48C13.0309 14.68 12.9776 14.8333 12.8709 14.94C12.7643 15.0467 12.6176 15.1 12.4309 15.1ZM12.4309 2.84C12.1643 2.84 11.9443 2.76 11.7709 2.6C11.6109 2.44 11.5309 2.23333 11.5309 1.98C11.5309 1.71333 11.6109 1.5 11.7709 1.34C11.9443 1.18 12.1643 1.1 12.4309 1.1C12.6976 1.1 12.9109 1.18 13.0709 1.34C13.2443 1.5 13.3309 1.71333 13.3309 1.98C13.3309 2.23333 13.2443 2.44 13.0709 2.6C12.9109 2.76 12.6976 2.84 12.4309 2.84ZM20.1245 15.14C19.2312 15.14 18.4445 14.9333 17.7645 14.52C17.0845 14.1067 16.5579 13.52 16.1845 12.76C15.8112 12 15.6245 11.1267 15.6245 10.14C15.6245 9.14 15.8112 8.26 16.1845 7.5C16.5712 6.72667 17.1045 6.12667 17.7845 5.7C18.4779 5.27333 19.2712 5.06 20.1645 5.06C20.6712 5.06 21.1645 5.12667 21.6445 5.26C22.1245 5.39333 22.5512 5.59333 22.9245 5.86C23.1645 6.03333 23.3312 6.19333 23.4245 6.34C23.5312 6.47333 23.5845 6.62 23.5845 6.78C23.5845 6.92667 23.5445 7.04667 23.4645 7.14C23.3845 7.23333 23.2845 7.28 23.1645 7.28C23.0312 7.28 22.8179 7.16667 22.5245 6.94C22.1779 6.68667 21.8312 6.48667 21.4845 6.34C21.1379 6.19333 20.7179 6.12 20.2245 6.12C19.1845 6.12 18.3712 6.48 17.7845 7.2C17.1979 7.90667 16.9045 8.88667 16.9045 10.14C16.9045 11.38 17.1912 12.3467 17.7645 13.04C18.3512 13.72 19.1645 14.06 20.2045 14.06C20.7112 14.06 21.1312 13.9867 21.4645 13.84C21.8112 13.6933 22.1845 13.4933 22.5845 13.24C22.7045 13.16 22.8179 13.0867 22.9245 13.02C23.0445 12.9533 23.1379 12.92 23.2045 12.92C23.3379 12.92 23.4445 12.9667 23.5245 13.06C23.6045 13.1533 23.6445 13.2667 23.6445 13.4C23.6445 13.56 23.5979 13.7 23.5045 13.82C23.4112 13.94 23.2312 14.0933 22.9645 14.28C22.6045 14.5467 22.1645 14.76 21.6445 14.92C21.1379 15.0667 20.6312 15.14 20.1245 15.14ZM29.5967 15.14C28.7034 15.14 27.9167 14.9333 27.2367 14.52C26.5701 14.1067 26.0501 13.52 25.6767 12.76C25.3034 12 25.1167 11.1133 25.1167 10.1C25.1167 9.08667 25.3034 8.2 25.6767 7.44C26.0501 6.68 26.5701 6.09333 27.2367 5.68C27.9167 5.26667 28.7034 5.06 29.5967 5.06C30.4767 5.06 31.2567 5.26667 31.9367 5.68C32.6167 6.09333 33.1367 6.68 33.4967 7.44C33.8701 8.2 34.0567 9.08667 34.0567 10.1C34.0567 11.1133 33.8701 12 33.4967 12.76C33.1367 13.52 32.6167 14.1067 31.9367 14.52C31.2567 14.9333 30.4767 15.14 29.5967 15.14ZM29.5767 14.06C30.6034 14.06 31.3967 13.72 31.9567 13.04C32.5167 12.36 32.7967 11.38 32.7967 10.1C32.7967 8.84667 32.5101 7.87333 31.9367 7.18C31.3767 6.47333 30.5967 6.12 29.5967 6.12C28.5834 6.12 27.7967 6.47333 27.2367 7.18C26.6767 7.87333 26.3967 8.84667 26.3967 10.1C26.3967 11.38 26.6701 12.36 27.2167 13.04C27.7634 13.72 28.5501 14.06 29.5767 14.06ZM37.2552 15.1C37.0685 15.1 36.9152 15.0467 36.7952 14.94C36.6885 14.8333 36.6352 14.68 36.6352 14.48V1.42C36.6352 1.22 36.6885 1.06667 36.7952 0.96C36.9152 0.853333 37.0685 0.799999 37.2552 0.799999C37.4285 0.799999 37.5685 0.853333 37.6752 0.96C37.7952 1.06667 37.8552 1.22 37.8552 1.42V14.48C37.8552 14.68 37.7952 14.8333 37.6752 14.94C37.5685 15.0467 37.4285 15.1 37.2552 15.1ZM44.9088 5.06C46.0821 5.06 46.9554 5.36667 47.5288 5.98C48.1154 6.59333 48.4088 7.52 48.4088 8.76V14.46C48.4088 14.6467 48.3554 14.8 48.2488 14.92C48.1421 15.0267 47.9954 15.08 47.8088 15.08C47.6221 15.08 47.4754 15.0267 47.3688 14.92C47.2621 14.8 47.2088 14.6467 47.2088 14.46V13.26C46.9288 13.86 46.5221 14.3267 45.9888 14.66C45.4554 14.98 44.8421 15.14 44.1488 15.14C43.5221 15.14 42.9488 15.0133 42.4288 14.76C41.9221 14.5067 41.5154 14.16 41.2088 13.72C40.9021 13.28 40.7488 12.7867 40.7488 12.24C40.7354 11.5067 40.9154 10.94 41.2888 10.54C41.6621 10.1267 42.2821 9.83333 43.1488 9.66C44.0154 9.48667 45.2288 9.4 46.7888 9.4H47.2088V8.66C47.2088 7.78 47.0288 7.14 46.6688 6.74C46.3088 6.32667 45.7421 6.12 44.9688 6.12C43.9821 6.12 43.0421 6.38 42.1488 6.9C42.1088 6.92667 42.0021 7 41.8288 7.12C41.6688 7.22667 41.5288 7.28 41.4088 7.28C41.2754 7.28 41.1621 7.23333 41.0688 7.14C40.9888 7.03333 40.9488 6.90667 40.9488 6.76C40.9488 6.46667 41.1821 6.18 41.6488 5.9C42.1154 5.63333 42.6354 5.42667 43.2088 5.28C43.7821 5.13333 44.3488 5.06 44.9088 5.06ZM44.2488 14.08C45.1154 14.08 45.8221 13.7867 46.3688 13.2C46.9288 12.6133 47.2088 11.8667 47.2088 10.96V10.3H46.8288C45.5488 10.3 44.5688 10.3533 43.8888 10.46C43.2088 10.5667 42.7288 10.7533 42.4488 11.02C42.1688 11.2733 42.0288 11.6467 42.0288 12.14C42.0288 12.7 42.2421 13.1667 42.6688 13.54C43.0954 13.9 43.6221 14.08 44.2488 14.08ZM54.7361 15.14C54.1761 15.14 53.6228 15.0667 53.0761 14.92C52.5428 14.76 52.0694 14.5467 51.6561 14.28C51.4028 14.1067 51.2228 13.96 51.1161 13.84C51.0228 13.7067 50.9761 13.56 50.9761 13.4C50.9761 13.2667 51.0161 13.1533 51.0961 13.06C51.1894 12.9667 51.2961 12.92 51.4161 12.92C51.5361 12.92 51.7428 13.02 52.0361 13.22C52.4228 13.4733 52.8161 13.68 53.2161 13.84C53.6294 14 54.1428 14.08 54.7561 14.08C55.5428 14.08 56.1561 13.94 56.5961 13.66C57.0361 13.3667 57.2561 12.9533 57.2561 12.42C57.2561 12.1 57.1761 11.84 57.0161 11.64C56.8561 11.4267 56.5894 11.2467 56.2161 11.1C55.8428 10.94 55.3094 10.7867 54.6161 10.64C53.4294 10.3733 52.5828 10.0333 52.0761 9.62C51.5828 9.19333 51.3361 8.62667 51.3361 7.92C51.3361 7.06667 51.6694 6.38 52.3361 5.86C53.0028 5.32667 53.8694 5.06 54.9361 5.06C55.4561 5.06 55.9494 5.12667 56.4161 5.26C56.8961 5.39333 57.3094 5.58667 57.6561 5.84C58.1228 6.16 58.3561 6.47333 58.3561 6.78C58.3561 6.91333 58.3094 7.03333 58.2161 7.14C58.1361 7.23333 58.0361 7.28 57.9161 7.28C57.7828 7.28 57.5761 7.17333 57.2961 6.96C56.9361 6.70667 56.5761 6.50667 56.2161 6.36C55.8694 6.2 55.4228 6.12 54.8761 6.12C54.1828 6.12 53.6294 6.28 53.2161 6.6C52.8028 6.90667 52.5961 7.32667 52.5961 7.86C52.5961 8.16667 52.6628 8.42 52.7961 8.62C52.9428 8.82 53.1828 9 53.5161 9.16C53.8628 9.30667 54.3561 9.45333 54.9961 9.6C55.9161 9.81333 56.6228 10.04 57.1161 10.28C57.6094 10.52 57.9628 10.8067 58.1761 11.14C58.3894 11.4733 58.4961 11.9 58.4961 12.42C58.4961 13.2333 58.1494 13.8933 57.4561 14.4C56.7761 14.8933 55.8694 15.14 54.7361 15.14ZM71.8966 4.98C72.7499 4.98 73.5032 5.18667 74.1566 5.6C74.8099 6.01333 75.3166 6.6 75.6766 7.36C76.0499 8.12 76.2366 9.00667 76.2366 10.02C76.2366 11.0333 76.0499 11.9333 75.6766 12.72C75.3166 13.4933 74.8032 14.0933 74.1366 14.52C73.4832 14.9467 72.7366 15.16 71.8966 15.16C71.1899 15.16 70.5566 15.0067 69.9966 14.7C69.4499 14.3933 69.0299 13.9667 68.7366 13.42V13.92C68.7366 14.28 68.6232 14.5667 68.3966 14.78C68.1699 14.9933 67.8699 15.1 67.4966 15.1C67.1232 15.1 66.8232 14.9933 66.5966 14.78C66.3832 14.5667 66.2766 14.28 66.2766 13.92V1.96C66.2766 1.61333 66.3899 1.33333 66.6166 1.12C66.8566 0.906666 67.1632 0.799999 67.5366 0.799999C67.9099 0.799999 68.2099 0.899999 68.4366 1.1C68.6632 1.3 68.7766 1.57333 68.7766 1.92V6.64C69.0699 6.10667 69.4899 5.7 70.0366 5.42C70.5832 5.12667 71.2032 4.98 71.8966 4.98ZM71.2366 13.22C72.0232 13.22 72.6366 12.94 73.0766 12.38C73.5166 11.82 73.7366 11.0333 73.7366 10.02C73.7366 9.02 73.5166 8.25333 73.0766 7.72C72.6499 7.18667 72.0366 6.92 71.2366 6.92C70.4366 6.92 69.8166 7.19333 69.3766 7.74C68.9499 8.27333 68.7366 9.04667 68.7366 10.06C68.7366 11.0733 68.9499 11.8533 69.3766 12.4C69.8166 12.9467 70.4366 13.22 71.2366 13.22ZM82.5283 4.98C83.8883 4.98 84.8949 5.32 85.5483 6C86.2149 6.66667 86.5483 7.68667 86.5483 9.06V13.94C86.5483 14.3 86.4416 14.5867 86.2283 14.8C86.0149 15 85.7216 15.1 85.3483 15.1C85.0016 15.1 84.7149 14.9933 84.4883 14.78C84.2749 14.5667 84.1683 14.2867 84.1683 13.94V13.5C83.9416 14.02 83.5816 14.4267 83.0883 14.72C82.6083 15.0133 82.0483 15.16 81.4083 15.16C80.7549 15.16 80.1616 15.0267 79.6283 14.76C79.0949 14.4933 78.6749 14.1267 78.3683 13.66C78.0616 13.1933 77.9083 12.6733 77.9083 12.1C77.9083 11.38 78.0883 10.8133 78.4483 10.4C78.8216 9.98667 79.4216 9.68667 80.2483 9.5C81.0749 9.31333 82.2149 9.22 83.6683 9.22H84.1683V8.76C84.1683 8.10667 84.0283 7.63333 83.7483 7.34C83.4683 7.03333 83.0149 6.88 82.3883 6.88C82.0016 6.88 81.6083 6.94 81.2083 7.06C80.8083 7.16667 80.3349 7.32667 79.7883 7.54C79.4416 7.71333 79.1883 7.8 79.0283 7.8C78.7883 7.8 78.5883 7.71333 78.4283 7.54C78.2816 7.36667 78.2083 7.14 78.2083 6.86C78.2083 6.63333 78.2616 6.44 78.3683 6.28C78.4883 6.10667 78.6816 5.94667 78.9483 5.8C79.4149 5.54667 79.9683 5.34667 80.6083 5.2C81.2616 5.05333 81.9016 4.98 82.5283 4.98ZM81.9083 13.36C82.5749 13.36 83.1149 13.14 83.5283 12.7C83.9549 12.2467 84.1683 11.6667 84.1683 10.96V10.54H83.8083C82.9149 10.54 82.2216 10.58 81.7283 10.66C81.2349 10.74 80.8816 10.88 80.6683 11.08C80.4549 11.28 80.3483 11.5533 80.3483 11.9C80.3483 12.3267 80.4949 12.68 80.7883 12.96C81.0949 13.2267 81.4683 13.36 81.9083 13.36ZM96.8091 5.02C97.1957 5.02 97.5024 5.12667 97.7291 5.34C97.9557 5.55333 98.0691 5.84 98.0691 6.2V13.96C98.0691 14.3067 97.9491 14.5867 97.7091 14.8C97.4824 15.0133 97.1824 15.12 96.8091 15.12C96.4491 15.12 96.1624 15.02 95.9491 14.82C95.7357 14.62 95.6291 14.3467 95.6291 14V13.5C95.3224 14.0333 94.9091 14.4467 94.3891 14.74C93.8691 15.02 93.2824 15.16 92.6291 15.16C90.2291 15.16 89.0291 13.8133 89.0291 11.12V6.2C89.0291 5.84 89.1424 5.55333 89.3691 5.34C89.5957 5.12667 89.8957 5.02 90.2691 5.02C90.6557 5.02 90.9624 5.12667 91.1891 5.34C91.4157 5.55333 91.5291 5.84 91.5291 6.2V11.14C91.5291 11.8333 91.6691 12.3467 91.9491 12.68C92.2291 13.0133 92.6691 13.18 93.2691 13.18C93.9624 13.18 94.5157 12.9533 94.9291 12.5C95.3557 12.0333 95.5691 11.42 95.5691 10.66V6.2C95.5691 5.84 95.6824 5.55333 95.9091 5.34C96.1357 5.12667 96.4357 5.02 96.8091 5.02ZM108.831 0.799999C109.204 0.799999 109.511 0.906666 109.751 1.12C109.991 1.33333 110.111 1.61333 110.111 1.96V13.92C110.111 14.28 109.998 14.5667 109.771 14.78C109.544 14.9933 109.244 15.1 108.871 15.1C108.498 15.1 108.198 14.9933 107.971 14.78C107.744 14.5667 107.631 14.28 107.631 13.92V13.42C107.338 13.9667 106.911 14.3933 106.351 14.7C105.804 15.0067 105.178 15.16 104.471 15.16C103.631 15.16 102.878 14.9467 102.211 14.52C101.558 14.0933 101.044 13.4933 100.671 12.72C100.311 11.9333 100.131 11.0333 100.131 10.02C100.131 9.00667 100.311 8.12 100.671 7.36C101.044 6.6 101.558 6.01333 102.211 5.6C102.864 5.18667 103.618 4.98 104.471 4.98C105.178 4.98 105.804 5.12667 106.351 5.42C106.898 5.71333 107.318 6.12667 107.611 6.66V1.92C107.611 1.58667 107.718 1.32 107.931 1.12C108.158 0.906666 108.458 0.799999 108.831 0.799999ZM105.131 13.22C105.931 13.22 106.544 12.9467 106.971 12.4C107.411 11.8533 107.631 11.0733 107.631 10.06C107.631 9.04667 107.411 8.27333 106.971 7.74C106.544 7.19333 105.938 6.92 105.151 6.92C104.351 6.92 103.731 7.18667 103.291 7.72C102.851 8.25333 102.631 9.02 102.631 10.02C102.631 11.0333 102.851 11.82 103.291 12.38C103.731 12.94 104.344 13.22 105.131 13.22ZM117.143 15.16C116.143 15.16 115.263 14.9533 114.503 14.54C113.756 14.1267 113.176 13.5333 112.763 12.76C112.349 11.9867 112.143 11.0867 112.143 10.06C112.143 9.03333 112.349 8.14 112.763 7.38C113.176 6.60667 113.756 6.01333 114.503 5.6C115.263 5.18667 116.143 4.98 117.143 4.98C118.143 4.98 119.016 5.18667 119.763 5.6C120.523 6.01333 121.103 6.60667 121.503 7.38C121.916 8.14 122.123 9.03333 122.123 10.06C122.123 11.0867 121.916 11.9867 121.503 12.76C121.103 13.5333 120.523 14.1267 119.763 14.54C119.016 14.9533 118.143 15.16 117.143 15.16ZM117.123 13.22C117.936 13.22 118.556 12.9533 118.983 12.42C119.409 11.8867 119.623 11.1 119.623 10.06C119.623 9.03333 119.409 8.25333 118.983 7.72C118.556 7.17333 117.943 6.9 117.143 6.9C116.343 6.9 115.723 7.17333 115.283 7.72C114.856 8.25333 114.643 9.03333 114.643 10.06C114.643 11.1 114.856 11.8867 115.283 12.42C115.709 12.9533 116.323 13.22 117.123 13.22ZM129.867 4.98C131.04 4.98 131.913 5.31333 132.487 5.98C133.06 6.64667 133.347 7.65333 133.347 9V13.92C133.347 14.2933 133.233 14.5867 133.007 14.8C132.793 15.0133 132.493 15.12 132.107 15.12C131.72 15.12 131.413 15.0133 131.187 14.8C130.96 14.5867 130.847 14.2933 130.847 13.92V9.14C130.847 8.38 130.7 7.82667 130.407 7.48C130.127 7.13333 129.68 6.96 129.067 6.96C128.347 6.96 127.767 7.18667 127.327 7.64C126.9 8.09333 126.687 8.7 126.687 9.46V13.92C126.687 14.2933 126.573 14.5867 126.347 14.8C126.12 15.0133 125.813 15.12 125.427 15.12C125.04 15.12 124.733 15.0133 124.507 14.8C124.293 14.5867 124.187 14.2933 124.187 13.92V6.18C124.187 5.83333 124.3 5.55333 124.527 5.34C124.753 5.12667 125.06 5.02 125.447 5.02C125.793 5.02 126.073 5.12667 126.287 5.34C126.513 5.54 126.627 5.80667 126.627 6.14V6.68C126.96 6.13333 127.407 5.71333 127.967 5.42C128.527 5.12667 129.16 4.98 129.867 4.98Z" fill="white"/>
</svg>
