<svg width="30" height="30" viewBox="0 0 30 30" fill="none" xmlns="http://www.w3.org/2000/svg">
<g clip-path="url(#clip0)">
<path d="M25.7389 4.26109C22.9909 1.51314 19.3382 0 15.4518 0C15.4515 0 15.4506 0 15.4504 0C13.5282 0.000228882 11.6551 0.372391 9.88329 1.10641C8.11129 1.84044 6.52376 2.90176 5.16443 4.26109C2.41671 7.00882 0.903568 10.6622 0.903568 14.5482C0.903568 16.8656 1.46273 19.1686 2.52222 21.2206L0.0768467 28.2065C-0.0955013 28.6993 0.0264927 29.2348 0.395908 29.604C0.654316 29.8627 0.994434 30 1.34417 30C1.49408 30 1.6456 29.9748 1.79346 29.9231L8.77939 27.478C10.8313 28.5374 13.1343 29.0966 15.4518 29.0966C19.3377 29.0966 22.9909 27.5832 25.7389 24.8355C28.4866 22.0878 29.9999 18.4344 29.9999 14.5484C29.9999 10.6622 28.4868 7.00882 25.7389 4.26109ZM24.4946 23.5913C22.0793 26.0069 18.8676 27.337 15.4518 27.337C13.3621 27.337 11.2861 26.8201 9.44818 25.8419C9.11493 25.6647 8.72103 25.6343 8.3674 25.7581L2.02051 27.9794L4.24204 21.6325C4.36586 21.2785 4.33519 20.8846 4.15804 20.5515C3.18003 18.7141 2.66298 16.6381 2.66298 14.5482C2.66298 11.1324 3.99324 7.92068 6.40863 5.50529C8.8238 3.09013 12.035 1.75987 15.4506 1.75941H15.4518C18.8678 1.75941 22.0793 3.08968 24.4946 5.50529C26.9103 7.92068 28.2405 11.1321 28.2405 14.5482C28.2405 17.9642 26.9103 21.1759 24.4946 23.5913Z" fill="white"/>
<path d="M20.8585 15.8478C20.1892 15.1785 19.1002 15.1785 18.431 15.8478L17.699 16.5797C15.8814 15.5894 14.4107 14.1186 13.4201 12.301L14.152 11.5691C14.8215 10.8998 14.8215 9.81079 14.152 9.14154L12.1795 7.16904C11.5103 6.49979 10.4212 6.49979 9.75199 7.16904L8.17408 8.74695C7.27022 9.6508 7.22514 11.2047 8.04705 13.1225C8.7607 14.7876 10.0667 16.6177 11.7245 18.2755C13.3823 19.9333 15.2124 21.2393 16.8775 21.953C17.7887 22.3434 18.6175 22.5382 19.3337 22.5382C20.1249 22.5382 20.7786 22.3004 21.2531 21.8259L22.831 20.2478V20.248C23.1553 19.9237 23.3338 19.4927 23.3338 19.0343C23.3338 18.5756 23.1553 18.1446 22.831 17.8205L20.8585 15.8478ZM20.0089 20.5817C19.7509 20.8397 18.9576 20.9301 17.5708 20.3359C16.1064 19.7083 14.472 18.5346 12.9687 17.0313C11.4654 15.528 10.2919 13.8938 9.66433 12.4294C9.06992 11.0426 9.16033 10.2491 9.41828 9.99115L10.966 8.44345L12.8776 10.3553L11.9614 11.2717C11.5471 11.686 11.4471 12.3143 11.7128 12.8352C12.9174 15.1973 14.8027 17.0826 17.1648 18.2872C17.686 18.5529 18.3142 18.4531 18.7285 18.0386L19.6447 17.1224L21.5566 19.0343L20.0089 20.5817Z" fill="white"/>
</g>
<defs>
<clipPath id="clip0">
<rect width="30" height="30" fill="white"/>
</clipPath>
</defs>
</svg>
