<svg width="30" height="30" viewBox="0 0 30 30" fill="none" xmlns="http://www.w3.org/2000/svg">
<path d="M21.561 30C20.5926 30 19.6324 29.8288 18.6935 29.4877C14.557 27.985 10.7175 25.5377 7.58987 22.4101C4.46225 19.2826 2.01488 15.443 0.5123 11.3066C0.029446 9.97729 -0.113049 8.60508 0.0889165 7.22795C0.278109 5.938 0.777778 4.68573 1.53396 3.60647C2.29349 2.52247 3.30607 1.62087 4.4622 0.999158C5.69508 0.336197 7.04075 0 8.46195 0C8.90397 0 9.28598 0.308835 9.37862 0.741005L10.8501 7.60785C10.9167 7.9188 10.8211 8.24234 10.5963 8.46721L8.08199 10.9815C10.4539 15.6973 14.3027 19.546 19.0185 21.9179L21.5327 19.4036C21.7576 19.1788 22.0812 19.0833 22.3921 19.1498L29.259 20.6213C29.6912 20.7139 30 21.0959 30 21.5379C30 22.9591 29.6638 24.3049 29.0008 25.5377C28.3791 26.6939 27.4775 27.7064 26.3935 28.466C25.3143 29.2221 24.062 29.7218 22.772 29.911C22.3677 29.9704 21.9636 29.9999 21.561 30V30ZM7.71292 1.91594C5.83828 2.12288 4.17439 3.10546 3.06947 4.68244C1.82698 6.45571 1.53724 8.63677 2.27456 10.6665C5.16336 18.6189 11.3812 24.8366 19.3336 27.7254C21.3632 28.4627 23.5443 28.1731 25.3177 26.9305C26.8946 25.8256 27.8772 24.1617 28.0842 22.2871L22.498 21.0901L19.8721 23.7159C19.5927 23.9953 19.1682 24.0696 18.8106 23.9015C13.2333 21.2813 8.7187 16.7667 6.09848 11.1894C5.9305 10.8318 6.00468 10.4073 6.2841 10.1279L8.90994 7.50209L7.71292 1.91594Z" fill="white"/>
</svg>
